<svg width="468" height="287" viewBox="0 0 468 287" fill="none" xmlns="http://www.w3.org/2000/svg">
<mask id="mask0_2_19" style="mask-type:luminance" maskUnits="userSpaceOnUse" x="164" y="0" width="140" height="188">
<path d="M303.083 0H164.896V187.039H303.083V0Z" fill="white"/>
</mask>
<g mask="url(#mask0_2_19)">
<path d="M256.928 71.0926C251.887 71.0994 246.947 69.6594 242.687 66.9407C238.426 64.222 235.021 60.3369 232.868 55.7392C230.715 51.1415 229.904 46.0209 230.529 40.9755C231.154 35.9301 233.19 31.1683 236.398 27.2461C235.838 27.2461 235.277 27.2461 234.707 27.2461C226.586 27.2461 218.648 29.6748 211.895 34.225C205.143 38.7753 199.88 45.2427 196.772 52.8096C193.664 60.3763 192.851 68.7026 194.435 76.7354C196.02 84.7683 199.93 92.147 205.673 97.9383C211.415 103.73 218.732 107.673 226.697 109.271C234.662 110.869 242.918 110.05 250.421 106.915C257.924 103.781 264.337 98.4733 268.848 91.6631C273.36 84.8532 275.768 76.8469 275.768 68.6567C275.766 66.9365 275.657 65.2181 275.44 63.512C270.487 68.3795 263.843 71.1001 256.928 71.0926ZM230.36 85.7081C228.067 85.7081 225.825 85.0223 223.919 83.7375C222.012 82.4527 220.526 80.6267 219.649 78.4902C218.771 76.3537 218.542 74.0027 218.989 71.7346C219.436 69.4665 220.54 67.3831 222.162 65.7479C223.783 64.1127 225.849 62.9991 228.098 62.548C230.347 62.0968 232.678 62.3284 234.796 63.2133C236.915 64.0983 238.726 65.597 239.999 67.5198C241.273 69.4425 241.953 71.7031 241.953 74.0157C241.953 77.1167 240.732 80.0907 238.558 82.2835C236.383 84.4762 233.435 85.7081 230.36 85.7081Z" fill="url(#paint0_linear_2_19)"/>
<path d="M209.107 159.757L233.261 187.04C233.261 187.04 312.204 118.152 302.204 54.6719C302.204 54.6719 292.195 123.706 209.107 159.757Z" fill="url(#paint1_linear_2_19)"/>
<path d="M183.987 69.6288C183.99 81.8179 188.392 93.5893 196.372 102.745C204.351 111.9 215.362 117.813 227.348 119.38L199.446 148.065C152.694 90.373 159.612 46.127 183.64 21.5925C197.135 13.3068 213.083 10.0523 228.711 12.395C244.339 14.7375 258.659 22.5291 269.181 34.4152C262.254 27.3201 253.391 22.4643 243.719 20.4656C234.047 18.4671 224.004 19.4162 214.868 23.1922C205.733 26.9682 197.918 33.4003 192.419 41.6697C186.92 49.9391 183.985 59.6717 183.987 69.6288ZM233.743 119.809C231.605 119.805 229.468 119.662 227.348 119.38L199.446 148.065C199.446 148.065 230.623 139.52 258.969 112.881C251.327 117.425 242.615 119.818 233.743 119.809Z" fill="url(#paint2_linear_2_19)"/>
<path d="M298.957 45.7562L282.958 62.2132C282.312 57.8193 281.084 53.5327 279.306 49.4685V49.5172C276.229 40.3446 271.045 32.0362 264.175 25.2708C257.306 18.5053 248.948 13.4746 239.782 10.5898C230.617 7.70507 220.905 7.04795 211.439 8.67218C201.974 10.2964 193.024 14.156 185.32 19.9355C198.723 7.27636 216.347 0.148601 234.709 -0.0390625C284.465 -0.0390625 298.957 45.7562 298.957 45.7562ZM298.957 45.7562L282.958 62.2132C283.316 64.6685 283.496 67.1466 283.499 69.6282C283.503 75.9674 282.313 82.2497 279.992 88.1411C288.624 75.1839 295.035 60.8561 298.957 45.7562Z" fill="url(#paint3_linear_2_19)"/>
</g>
<path d="M51.2051 244.65V246.029L31.8734 285.065H19.4116L0 246.029V244.65H9.98538L25.6425 276.544L41.2197 244.65H51.2051ZM65.6854 244.65V285.065H56.0994V244.65H65.6854ZM60.8924 239.131C59.0281 239.131 57.5103 238.563 56.339 237.427C55.1673 236.291 54.5816 234.83 54.5816 233.045C54.5816 231.313 55.1673 229.88 56.339 228.743C57.5103 227.607 59.0281 227.039 60.8924 227.039C62.7561 227.039 64.2739 227.607 65.4457 228.743C66.617 229.825 67.2031 231.259 67.2031 233.045C67.2031 234.83 66.617 236.291 65.4457 237.427C64.2739 238.563 62.7561 239.131 60.8924 239.131ZM118.499 268.104H81.8322C82.2047 270.971 83.5627 273.19 85.9063 274.758C88.3028 276.327 91.4711 277.112 95.4124 277.112C99.087 277.112 102.069 276.571 104.359 275.489C106.649 274.407 107.927 272.946 108.194 271.106H118.499C117.966 275.868 115.676 279.547 111.629 282.144C107.634 284.741 102.229 286.039 95.4124 286.039C90.566 286.039 86.3586 285.228 82.7908 283.604C79.276 281.927 76.5599 279.574 74.6428 276.544C72.7256 273.46 71.767 269.862 71.767 265.75V264.127C71.767 259.961 72.7256 256.336 74.6428 253.252C76.5599 250.168 79.3024 247.815 82.8707 246.192C86.4385 244.515 90.6194 243.676 95.4124 243.676C102.655 243.676 108.3 245.461 112.348 249.032C116.448 252.603 118.499 257.526 118.499 263.802V268.104ZM95.3325 252.603C91.8176 252.603 88.9149 253.252 86.6252 254.551C84.3351 255.849 82.8437 257.662 82.1518 259.988H108.114C107.475 257.662 106.037 255.849 103.8 254.551C101.563 253.252 98.7405 252.603 95.3325 252.603ZM198.979 244.65V246.029L182.843 285.065H170.221L158.558 256.823L146.975 285.065H134.434L118.217 246.029V244.65H128.442L140.745 276.057L153.606 244.65H163.431L176.612 276.463L189.234 244.65H198.979ZM264.625 251.71H246.731V285.065H239.063V251.71H225.243V244.893H239.063V241.16C239.063 237.265 240.181 234.208 242.418 231.99C244.708 229.717 247.823 228.581 251.764 228.581H261.43V235.479H252.723C250.805 235.479 249.314 235.993 248.249 237.021C247.237 238.049 246.731 239.564 246.731 241.566V244.893H264.625V251.71ZM275.649 244.893V285.065H267.98V244.893H275.649ZM271.815 238.482C270.27 238.482 269.019 238.022 268.06 237.102C267.102 236.128 266.622 234.884 266.622 233.369C266.622 231.908 267.102 230.718 268.06 229.798C269.019 228.879 270.27 228.419 271.815 228.419C273.359 228.419 274.611 228.879 275.569 229.798C276.528 230.718 277.007 231.908 277.007 233.369C277.007 234.884 276.528 236.128 275.569 237.102C274.611 238.022 273.359 238.482 271.815 238.482ZM308.012 243.919C314.936 243.919 320.154 245.678 323.669 249.194C327.238 252.657 329.021 257.77 329.021 264.533V285.065H321.433V264.533C321.433 260.15 320.208 256.823 317.758 254.551C315.361 252.224 311.874 251.061 307.293 251.061C304.151 251.061 301.276 251.791 298.666 253.252C296.11 254.713 294.192 256.661 292.914 259.095V285.065H285.246V244.893H292.355L292.675 250.087C296.616 246.084 301.728 244.028 308.012 243.919ZM380.381 228.581V285.065H373.272L373.032 280.439C368.932 284.172 363.659 286.039 357.215 286.039C352.529 286.039 348.455 285.228 344.993 283.604C341.532 281.927 338.869 279.547 337.005 276.463C335.141 273.379 334.209 269.754 334.209 265.588V264.289C334.209 260.123 335.141 256.526 337.005 253.496C338.869 250.412 341.532 248.058 344.993 246.435C348.455 244.758 352.529 243.919 357.215 243.919C360.251 243.919 363.074 244.379 365.683 245.299C368.346 246.219 370.689 247.544 372.712 249.276V228.581H380.381ZM357.934 278.897C361.077 278.897 363.952 278.329 366.562 277.193C369.171 276.003 371.222 274.407 372.712 272.405V257.472C371.222 255.525 369.171 253.983 366.562 252.846C363.952 251.656 361.077 251.061 357.934 251.061C352.981 251.061 349.094 252.224 346.271 254.551C343.502 256.877 342.117 260.123 342.117 264.289V265.588C342.117 269.7 343.529 272.946 346.351 275.327C349.174 277.707 353.035 278.897 357.934 278.897ZM432.222 267.536H394.118C394.384 271.052 395.876 273.839 398.592 275.895C401.308 277.897 404.929 278.897 409.456 278.897C413.665 278.897 417.07 278.194 419.681 276.787C422.342 275.327 423.78 273.406 423.994 271.025H432.222C431.798 275.732 429.561 279.411 425.512 282.062C421.518 284.714 416.166 286.039 409.456 286.039C404.716 286.039 400.589 285.228 397.074 283.604C393.559 281.927 390.843 279.574 388.926 276.544C387.062 273.514 386.13 269.97 386.13 265.913V264.208C386.13 260.096 387.062 256.526 388.926 253.496C390.843 250.412 393.559 248.058 397.074 246.435C400.589 244.758 404.716 243.919 409.456 243.919C416.54 243.919 422.102 245.705 426.151 249.276C430.2 252.792 432.222 257.662 432.222 263.884V267.536ZM409.456 251.061C405.195 251.061 401.734 251.954 399.071 253.739C396.461 255.47 394.864 257.905 394.278 261.043H424.074C423.595 257.905 422.077 255.47 419.521 253.739C416.965 251.954 413.61 251.061 409.456 251.061ZM468 244.893V251.71H459.213C456.337 251.71 453.781 252.197 451.544 253.171C449.362 254.145 447.66 255.525 446.432 257.31V285.065H438.763V244.893H445.952L446.192 249.519C447.949 248.004 450.026 246.868 452.423 246.111C454.819 245.299 457.43 244.893 460.251 244.893H468Z" fill="white"/>
<defs>
<linearGradient id="paint0_linear_2_19" x1="254.33" y1="107.329" x2="213.88" y2="35.2351" gradientUnits="userSpaceOnUse">
<stop offset="0.43" stop-color="#FF992C"/>
<stop offset="0.93" stop-color="#CC6900"/>
</linearGradient>
<linearGradient id="paint1_linear_2_19" x1="220.527" y1="177.179" x2="319.31" y2="55.2952" gradientUnits="userSpaceOnUse">
<stop stop-color="#FF992C"/>
<stop offset="1" stop-color="#F07C00"/>
</linearGradient>
<linearGradient id="paint2_linear_2_19" x1="209.725" y1="134.97" x2="218.873" y2="30.1997" gradientUnits="userSpaceOnUse">
<stop stop-color="#FF992C"/>
<stop offset="0.93" stop-color="#CC6900"/>
</linearGradient>
<linearGradient id="paint3_linear_2_19" x1="185.32" y1="44.0705" x2="298.957" y2="44.0705" gradientUnits="userSpaceOnUse">
<stop stop-color="#FF992C"/>
<stop offset="0.93" stop-color="#F07C00"/>
</linearGradient>
</defs>
</svg>
