<svg width="29" height="29" viewBox="0 0 29 29" fill="none" xmlns="http://www.w3.org/2000/svg">
<g clip-path="url(#clip0_64_164)">
<path d="M24.1006 3.26251C21.0987 5.52247 17.7569 7.29532 13.877 8.69435L12.8858 9.05118L12.8688 13.5881C12.8631 16.6467 12.8745 18.125 12.9141 18.125C13.0274 18.125 14.9418 18.8274 15.8028 19.1842C18.7538 20.4133 21.7727 22.1238 24.1743 23.9363L24.667 24.3045L24.684 18.9576C24.6897 16.0123 24.6897 11.1809 24.684 8.21857L24.667 2.83771L24.1006 3.26251Z" fill="#FF992C"/>
<path d="M2.31094 9.64023L2.29395 10.3936L1.1498 10.4105L0 10.4219V13.5938V16.7656H1.16113H2.32227V17.5303V18.2949H6.71191H11.1016V13.5938V8.89258H6.71191H2.32793L2.31094 9.64023Z" fill="#FF992C"/>
<path d="M26.4512 13.5881V17.6152H26.6664C27.7879 17.6152 28.6602 16.9979 28.9207 16.018C29.0396 15.5592 29.034 11.6 28.915 11.1299C28.6715 10.2066 27.9465 9.63457 26.9496 9.58359L26.4512 9.56094V13.5881Z" fill="#FF992C"/>
<path d="M4.61058 20.0904C4.62191 20.1471 4.92211 21.5064 5.26762 23.1094C5.61312 24.7123 5.90765 26.0717 5.92465 26.1227C5.95297 26.2189 6.12855 26.2246 8.61508 26.2246C10.4729 26.2246 11.2715 26.2076 11.2715 26.1623C11.2715 26.0717 9.96312 20.0848 9.92914 20.0338C9.91781 20.0111 8.7057 19.9941 7.24437 19.9941C4.73519 19.9941 4.58226 19.9998 4.61058 20.0904Z" fill="#FF992C"/>
</g>
<defs>
<clipPath id="clip0_64_164">
<rect width="29" height="29" fill="white"/>
</clipPath>
</defs>
</svg>
