<svg width="12" height="12" viewBox="0 0 12 12" fill="none" xmlns="http://www.w3.org/2000/svg">
<path fill-rule="evenodd" clip-rule="evenodd" d="M9.09796 0.0330016C8.895 0.0774158 8.68515 0.173597 8.50049 0.306839C8.41612 0.367734 6.78525 1.97982 4.87633 3.88928L1.40561 7.36102L0.702741 9.48952C0.316192 10.6602 -5.00521e-05 11.6505 5.94197e-09 11.6902C0.000175209 11.8358 0.167995 12 0.316542 12C0.341997 12 1.32596 11.6792 2.5031 11.2872L4.64341 10.5743L8.17544 7.04207C12.0235 3.19376 11.812 3.42091 11.9423 2.99712C11.9877 2.84965 12 2.75077 12 2.53448C12 2.31818 11.9877 2.2193 11.9423 2.07183C11.8283 1.70126 11.7616 1.61343 11.0659 0.918234C10.4491 0.301912 10.4162 0.273328 10.2085 0.173571C10.0898 0.116528 9.91518 0.0534581 9.8206 0.0334517C9.61075 -0.0109875 9.29982 -0.0111625 9.09796 0.0330016ZM9.81762 0.721246C10.0131 0.79432 10.1203 0.885399 10.6896 1.46236C11.2239 2.00393 11.2971 2.10889 11.3327 2.3851C11.3814 2.7631 11.2753 3.02541 10.9385 3.35944L10.7119 3.58419L9.55949 2.43414L8.40706 1.28408L8.63279 1.06681C8.75694 0.947294 8.90704 0.821103 8.96633 0.786392C9.2168 0.63972 9.53454 0.615413 9.81762 0.721246ZM9.09177 2.91592L10.2367 4.06011L7.35844 6.93588L4.48015 9.81165L3.32876 8.66143L2.17738 7.51122L5.04943 4.64147C6.62907 3.06312 7.9272 1.77173 7.93416 1.77173C7.94114 1.77173 8.46204 2.28662 9.09177 2.91592ZM2.86292 9.14629L3.86103 10.1438L2.38484 10.6343C1.57293 10.904 0.89654 11.1247 0.881773 11.1247C0.866981 11.1247 1.0736 10.4692 1.34086 9.668C1.86852 8.08635 1.84727 8.14877 1.85763 8.14877C1.86159 8.14877 2.31396 8.59766 2.86292 9.14629Z" fill="white"/>
</svg>
